<?xml version="1.0" encoding="UTF-8" standalone="no"?>
<!DOCTYPE svg PUBLIC "-//W3C//DTD SVG 1.1//EN"
 "http://www.w3.org/Graphics/SVG/1.1/DTD/svg11.dtd">
<!-- Generated by graphviz version 2.26.3 (20100126.1600)
 -->
<!-- Title: G Pages: 1 -->
<svg width="736pt" height="2176pt"
 viewBox="0.00 0.00 736.00 2176.00" xmlns="http://www.w3.org/2000/svg" xmlns:xlink="http://www.w3.org/1999/xlink">
<g id="graph1" class="graph" transform="scale(1 1) rotate(0) translate(4 2172)">
<title>G</title>
<polygon fill="white" stroke="white" points="-4,5 -4,-2172 733,-2172 733,5 -4,5"/>
<g id="graph2" class="cluster"><title>cluster_Global</title>
<polyline fill="none" stroke="gray" points="20,-152 708,-152 "/>
<path fill="none" stroke="gray" d="M708,-152C714,-152 720,-158 720,-164"/>
<polyline fill="none" stroke="gray" points="720,-164 720,-2148 "/>
<path fill="none" stroke="gray" d="M720,-2148C720,-2154 714,-2160 708,-2160"/>
<polyline fill="none" stroke="gray" points="708,-2160 20,-2160 "/>
<path fill="none" stroke="gray" d="M20,-2160C14,-2160 8,-2154 8,-2148"/>
<polyline fill="none" stroke="gray" points="8,-2148 8,-164 "/>
<path fill="none" stroke="gray" d="M8,-164C8,-158 14,-152 20,-152"/>
<text text-anchor="middle" x="364" y="-2146.1" font-family="Times Roman,serif" font-size="11.00" fill="gray">\</text>
</g>
<g id="graph3" class="cluster"><title>cluster_\PLib</title>
<polyline fill="none" stroke="gray" points="28,-160 700,-160 "/>
<path fill="none" stroke="gray" d="M700,-160C706,-160 712,-166 712,-172"/>
<polyline fill="none" stroke="gray" points="712,-172 712,-2118 "/>
<path fill="none" stroke="gray" d="M712,-2118C712,-2124 706,-2130 700,-2130"/>
<polyline fill="none" stroke="gray" points="700,-2130 28,-2130 "/>
<path fill="none" stroke="gray" d="M28,-2130C22,-2130 16,-2124 16,-2118"/>
<polyline fill="none" stroke="gray" points="16,-2118 16,-172 "/>
<path fill="none" stroke="gray" d="M16,-172C16,-166 22,-160 28,-160"/>
<text text-anchor="middle" x="364" y="-2116.1" font-family="Times Roman,serif" font-size="11.00" fill="gray">PLib</text>
</g>
<g id="graph4" class="cluster"><title>cluster_\PLib\Net</title>
<polyline fill="none" stroke="gray" points="518,-1512 690,-1512 "/>
<path fill="none" stroke="gray" d="M690,-1512C696,-1512 702,-1518 702,-1524"/>
<polyline fill="none" stroke="gray" points="702,-1524 702,-1898 "/>
<path fill="none" stroke="gray" d="M702,-1898C702,-1904 696,-1910 690,-1910"/>
<polyline fill="none" stroke="gray" points="690,-1910 518,-1910 "/>
<path fill="none" stroke="gray" d="M518,-1910C512,-1910 506,-1904 506,-1898"/>
<polyline fill="none" stroke="gray" points="506,-1898 506,-1524 "/>
<path fill="none" stroke="gray" d="M506,-1524C506,-1518 512,-1512 518,-1512"/>
<text text-anchor="middle" x="604" y="-1896.1" font-family="Times Roman,serif" font-size="11.00" fill="gray">Net</text>
</g>
<g id="graph5" class="cluster"><title>cluster_\PLib\XML</title>
<polyline fill="none" stroke="gray" points="39,-1918 649,-1918 "/>
<path fill="none" stroke="gray" d="M649,-1918C655,-1918 661,-1924 661,-1930"/>
<polyline fill="none" stroke="gray" points="661,-1930 661,-2088 "/>
<path fill="none" stroke="gray" d="M661,-2088C661,-2094 655,-2100 649,-2100"/>
<polyline fill="none" stroke="gray" points="649,-2100 39,-2100 "/>
<path fill="none" stroke="gray" d="M39,-2100C33,-2100 27,-2094 27,-2088"/>
<polyline fill="none" stroke="gray" points="27,-2088 27,-1930 "/>
<path fill="none" stroke="gray" d="M27,-1930C27,-1924 33,-1918 39,-1918"/>
<text text-anchor="middle" x="344" y="-2086.1" font-family="Times Roman,serif" font-size="11.00" fill="gray">XML</text>
</g>
<g id="graph6" class="cluster"><title>cluster_\PLib\Web</title>
<polyline fill="none" stroke="gray" points="549,-1322 659,-1322 "/>
<path fill="none" stroke="gray" d="M659,-1322C665,-1322 671,-1328 671,-1334"/>
<polyline fill="none" stroke="gray" points="671,-1334 671,-1492 "/>
<path fill="none" stroke="gray" d="M671,-1492C671,-1498 665,-1504 659,-1504"/>
<polyline fill="none" stroke="gray" points="659,-1504 549,-1504 "/>
<path fill="none" stroke="gray" d="M549,-1504C543,-1504 537,-1498 537,-1492"/>
<polyline fill="none" stroke="gray" points="537,-1492 537,-1334 "/>
<path fill="none" stroke="gray" d="M537,-1334C537,-1328 543,-1322 549,-1322"/>
<text text-anchor="middle" x="604" y="-1490.1" font-family="Times Roman,serif" font-size="11.00" fill="gray">Web</text>
</g>
<g id="graph7" class="cluster"><title>cluster_\PLib\HTML</title>
<polyline fill="none" stroke="gray" points="579,-1186 629,-1186 "/>
<path fill="none" stroke="gray" d="M629,-1186C635,-1186 641,-1192 641,-1198"/>
<polyline fill="none" stroke="gray" points="641,-1198 641,-1302 "/>
<path fill="none" stroke="gray" d="M641,-1302C641,-1308 635,-1314 629,-1314"/>
<polyline fill="none" stroke="gray" points="629,-1314 579,-1314 "/>
<path fill="none" stroke="gray" d="M579,-1314C573,-1314 567,-1308 567,-1302"/>
<polyline fill="none" stroke="gray" points="567,-1302 567,-1198 "/>
<path fill="none" stroke="gray" d="M567,-1198C567,-1192 573,-1186 579,-1186"/>
<text text-anchor="middle" x="604" y="-1300.1" font-family="Times Roman,serif" font-size="11.00" fill="gray">HTML</text>
</g>
<!-- \\PLib\\Net\\HTTPRequest -->
<g id="node4" class="node"><title>\\PLib\\Net\\HTTPRequest</title>
<polygon fill="none" stroke="black" points="649,-1880 559,-1880 559,-1844 649,-1844 649,-1880"/>
<text text-anchor="middle" x="604" y="-1859.1" font-family="Courier,monospace" font-size="11.00">HTTPRequest</text>
</g>
<!-- \\PLib\\Net\\HTTPResponse -->
<g id="node5" class="node"><title>\\PLib\\Net\\HTTPResponse</title>
<polygon fill="none" stroke="black" points="653,-1826 555,-1826 555,-1790 653,-1790 653,-1826"/>
<text text-anchor="middle" x="604" y="-1805.1" font-family="Courier,monospace" font-size="11.00">HTTPResponse</text>
</g>
<!-- \\PLib\\Net\\HTTPCookie -->
<g id="node6" class="node"><title>\\PLib\\Net\\HTTPCookie</title>
<polygon fill="none" stroke="black" points="646,-1772 562,-1772 562,-1736 646,-1736 646,-1772"/>
<text text-anchor="middle" x="604" y="-1751.1" font-family="Courier,monospace" font-size="11.00">HTTPCookie</text>
</g>
<!-- \\PLib\\Net\\Net -->
<g id="node7" class="node"><title>\\PLib\\Net\\Net</title>
<polygon fill="none" stroke="black" points="631,-1718 577,-1718 577,-1682 631,-1682 631,-1718"/>
<text text-anchor="middle" x="604" y="-1697.1" font-family="Courier,monospace" font-size="11.00">Net</text>
</g>
<!-- \\PLib\\Net\\HTTPMaxRedirectException -->
<g id="node8" class="node"><title>\\PLib\\Net\\HTTPMaxRedirectException</title>
<polygon fill="none" stroke="black" points="693,-1556 515,-1556 515,-1520 693,-1520 693,-1556"/>
<text text-anchor="middle" x="604" y="-1535.1" font-family="Courier,monospace" font-size="11.00">HTTPMaxRedirectException</text>
</g>
<!-- \\Exception -->
<g id="node48" class="node"><title>\\Exception</title>
<ellipse fill="none" stroke="black" cx="307" cy="-72" rx="62.2254" ry="18.3848"/>
<text text-anchor="middle" x="307" y="-68.4" font-family="Times Roman,serif" font-size="14.00" fill="gray">\Exception</text>
</g>
<!-- \\PLib\\Net\\HTTPMaxRedirectException&#45;&gt;\\Exception -->
<g id="edge8" class="edge"><title>\\PLib\\Net\\HTTPMaxRedirectException&#45;&gt;\\Exception</title>
<path fill="none" stroke="black" d="M516.52,-1519.77C511.827,-1516.45 507.58,-1512.56 504,-1508 310.491,-1261.32 635.066,-337.87 432,-99 418.776,-83.444 398.922,-75.5801 378.908,-71.8893"/>
<polygon fill="none" stroke="black" points="379.192,-68.3926 368.781,-70.359 378.146,-75.314 379.192,-68.3926"/>
</g>
<!-- \\PLib\\Net\\HTTPRequestException -->
<g id="node9" class="node"><title>\\PLib\\Net\\HTTPRequestException</title>
<polygon fill="none" stroke="black" points="680,-1664 528,-1664 528,-1628 680,-1628 680,-1664"/>
<text text-anchor="middle" x="604" y="-1643.1" font-family="Courier,monospace" font-size="11.00">HTTPRequestException</text>
</g>
<!-- \\PLib\\Net\\HTTPRequestException&#45;&gt;\\Exception -->
<g id="edge10" class="edge"><title>\\PLib\\Net\\HTTPRequestException&#45;&gt;\\Exception</title>
<path fill="none" stroke="black" d="M527.816,-1636.68C518.645,-1632.55 510.31,-1626.85 504,-1619 398.052,-1487.23 541.272,-228.024 432,-99 418.805,-83.4194 398.959,-75.5486 378.943,-71.859"/>
<polygon fill="none" stroke="black" points="379.226,-68.3621 368.815,-70.33 378.181,-75.2836 379.226,-68.3621"/>
</g>
<!-- \\PLib\\Net\\HTTPResponseException -->
<g id="node10" class="node"><title>\\PLib\\Net\\HTTPResponseException</title>
<polygon fill="none" stroke="black" points="683,-1610 525,-1610 525,-1574 683,-1574 683,-1610"/>
<text text-anchor="middle" x="604" y="-1589.1" font-family="Courier,monospace" font-size="11.00">HTTPResponseException</text>
</g>
<!-- \\PLib\\Net\\HTTPResponseException&#45;&gt;\\Exception -->
<g id="edge12" class="edge"><title>\\PLib\\Net\\HTTPResponseException&#45;&gt;\\Exception</title>
<path fill="none" stroke="black" d="M524.911,-1581.29C516.892,-1577.3 509.64,-1572 504,-1565 299.394,-1310.99 643.014,-347.717 432,-99 418.791,-83.4309 398.941,-75.5633 378.927,-71.8732"/>
<polygon fill="none" stroke="black" points="379.21,-68.3763 368.799,-70.3436 378.165,-75.2978 379.21,-68.3763"/>
</g>
<!-- \\PLib\\XML\\Qname -->
<g id="node12" class="node"><title>\\PLib\\XML\\Qname</title>
<polygon fill="none" stroke="black" points="631,-2070 577,-2070 577,-2034 631,-2034 631,-2070"/>
<text text-anchor="middle" x="604" y="-2049.1" font-family="Courier,monospace" font-size="11.00">Qname</text>
</g>
<!-- \\PLib\\XML\\XMLNode -->
<g id="node13" class="node"><title>\\PLib\\XML\\XMLNode</title>
<polygon fill="none" stroke="black" points="99,-2016 35,-2016 35,-1980 99,-1980 99,-2016"/>
<text text-anchor="middle" x="67" y="-1995.1" font-family="Courier,monospace" font-size="11.00">XMLNode</text>
</g>
<!-- \\PLib\\XML\\XMLDocument -->
<g id="node14" class="node"><title>\\PLib\\XML\\XMLDocument</title>
<polygon fill="none" stroke="black" points="352,-2016 262,-2016 262,-1980 352,-1980 352,-2016"/>
<text text-anchor="middle" x="307" y="-1995.1" font-family="Courier,monospace" font-size="11.00">XMLDocument</text>
</g>
<!-- \\PLib\\XML\\XMLDocument&#45;&gt;\\PLib\\XML\\XMLNode -->
<g id="edge32" class="edge"><title>\\PLib\\XML\\XMLDocument&#45;&gt;\\PLib\\XML\\XMLNode</title>
<path fill="none" stroke="black" d="M261.293,-1998C217.443,-1998 151.773,-1998 109.153,-1998"/>
<polygon fill="none" stroke="black" points="109.106,-1994.5 99.1058,-1998 109.106,-2001.5 109.106,-1994.5"/>
</g>
<!-- \\PLib\\XML\\HTMLDocument -->
<g id="node15" class="node"><title>\\PLib\\XML\\HTMLDocument</title>
<polygon fill="none" stroke="black" points="653,-2016 555,-2016 555,-1980 653,-1980 653,-2016"/>
<text text-anchor="middle" x="604" y="-1995.1" font-family="Courier,monospace" font-size="11.00">HTMLDocument</text>
</g>
<!-- \\PLib\\XML\\HTMLDocument&#45;&gt;\\PLib\\XML\\XMLDocument -->
<g id="edge34" class="edge"><title>\\PLib\\XML\\HTMLDocument&#45;&gt;\\PLib\\XML\\XMLDocument</title>
<path fill="none" stroke="black" d="M554.956,-1998C502.176,-1998 418.372,-1998 363.029,-1998"/>
<polygon fill="none" stroke="black" points="362.7,-1994.5 352.7,-1998 362.7,-2001.5 362.7,-1994.5"/>
</g>
<!-- \\PLib\\XML\\Ent -->
<g id="node16" class="node"><title>\\PLib\\XML\\Ent</title>
<polygon fill="none" stroke="black" points="631,-1962 577,-1962 577,-1926 631,-1926 631,-1962"/>
<text text-anchor="middle" x="604" y="-1941.1" font-family="Courier,monospace" font-size="11.00">Ent</text>
</g>
<!-- \\PLib\\Web\\Cookie -->
<g id="node18" class="node"><title>\\PLib\\Web\\Cookie</title>
<polygon fill="none" stroke="black" points="632,-1474 576,-1474 576,-1438 632,-1438 632,-1474"/>
<text text-anchor="middle" x="604" y="-1453.1" font-family="Courier,monospace" font-size="11.00">Cookie</text>
</g>
<!-- \\PLib\\Web\\Upload -->
<g id="node19" class="node"><title>\\PLib\\Web\\Upload</title>
<polygon fill="none" stroke="black" points="632,-1420 576,-1420 576,-1384 632,-1384 632,-1420"/>
<text text-anchor="middle" x="604" y="-1399.1" font-family="Courier,monospace" font-size="11.00">Upload</text>
</g>
<!-- \\PLib\\Web\\PLib\\Iterator -->
<g id="node58" class="node"><title>\\PLib\\Web\\PLib\\Iterator</title>
<ellipse fill="none" stroke="black" cx="307" cy="-126" rx="125.158" ry="18.3848"/>
<text text-anchor="middle" x="307" y="-122.4" font-family="Times Roman,serif" font-size="14.00" fill="gray">\PLib\Web\PLib\Iterator</text>
</g>
<!-- \\PLib\\Web\\Upload&#45;&gt;\\PLib\\Web\\PLib\\Iterator -->
<g id="edge26" class="edge"><title>\\PLib\\Web\\Upload&#45;&gt;\\PLib\\Web\\PLib\\Iterator</title>
<path fill="none" stroke="black" d="M575.057,-1402.68C552.013,-1401.52 520.911,-1395.78 504,-1375 332.729,-1164.52 606.218,-364.05 432,-156 427.379,-150.482 421.939,-145.878 415.959,-142.045"/>
<polygon fill="none" stroke="black" points="417.283,-138.776 406.844,-136.966 413.875,-144.891 417.283,-138.776"/>
</g>
<!-- \\PLib\\Web\\UploadException -->
<g id="node20" class="node"><title>\\PLib\\Web\\UploadException</title>
<polygon fill="none" stroke="black" points="663,-1366 545,-1366 545,-1330 663,-1330 663,-1366"/>
<text text-anchor="middle" x="604" y="-1345.1" font-family="Courier,monospace" font-size="11.00">UploadException</text>
</g>
<!-- \\PLib\\Web\\Exception -->
<g id="node60" class="node"><title>\\PLib\\Web\\Exception</title>
<ellipse fill="none" stroke="black" cx="307" cy="-18" rx="111.016" ry="18.3848"/>
<text text-anchor="middle" x="307" y="-14.4" font-family="Times Roman,serif" font-size="14.00" fill="gray">\PLib\Web\Exception</text>
</g>
<!-- \\PLib\\Web\\UploadException&#45;&gt;\\PLib\\Web\\Exception -->
<g id="edge28" class="edge"><title>\\PLib\\Web\\UploadException&#45;&gt;\\PLib\\Web\\Exception</title>
<path fill="none" stroke="black" d="M544.872,-1342.6C529.292,-1338.23 514.047,-1330.74 504,-1318 328.512,-1095.55 616.106,-260.376 432,-45 427.14,-39.3148 421.395,-34.6583 415.081,-30.8582"/>
<polygon fill="none" stroke="black" points="416.633,-27.7201 406.149,-26.1909 413.391,-33.9242 416.633,-27.7201"/>
</g>
<!-- \\PLib\\HTML\\Parser -->
<g id="node22" class="node"><title>\\PLib\\HTML\\Parser</title>
<polygon fill="none" stroke="black" points="632,-1284 576,-1284 576,-1248 632,-1248 632,-1284"/>
<text text-anchor="middle" x="604" y="-1263.1" font-family="Courier,monospace" font-size="11.00">Parser</text>
</g>
<!-- \\PLib\\HTML\\Object -->
<g id="node23" class="node"><title>\\PLib\\HTML\\Object</title>
<polygon fill="none" stroke="black" points="632,-1230 576,-1230 576,-1194 632,-1194 632,-1230"/>
<text text-anchor="middle" x="604" y="-1209.1" font-family="Courier,monospace" font-size="11.00">Object</text>
</g>
<!-- \\PLib\\File -->
<g id="node24" class="node"><title>\\PLib\\File</title>
<polygon fill="none" stroke="black" points="631,-1122 577,-1122 577,-1086 631,-1086 631,-1122"/>
<text text-anchor="middle" x="604" y="-1101.1" font-family="Courier,monospace" font-size="11.00">File</text>
</g>
<!-- \\PLib\\IO -->
<g id="node26" class="node"><title>\\PLib\\IO</title>
<polygon fill="none" stroke="black" points="349,-1149 265,-1149 265,-1113 349,-1113 349,-1149"/>
<text text-anchor="start" x="273" y="-1136.43" font-family="Courier,monospace" font-size="11.00">«abstract»</text>
<text text-anchor="start" x="300" y="-1123.23" font-family="Courier,monospace" font-size="11.00">IO</text>
</g>
<!-- \\PLib\\File&#45;&gt;\\PLib\\IO -->
<g id="edge14" class="edge"><title>\\PLib\\File&#45;&gt;\\PLib\\IO</title>
<path fill="none" stroke="black" d="M576.856,-1106.47C527.751,-1110.93 423.375,-1120.42 359.79,-1126.2"/>
<polygon fill="none" stroke="black" points="359.208,-1122.74 349.566,-1127.13 359.842,-1129.71 359.208,-1122.74"/>
</g>
<!-- \\PLib\\Dir -->
<g id="node25" class="node"><title>\\PLib\\Dir</title>
<polygon fill="none" stroke="black" points="631,-1176 577,-1176 577,-1140 631,-1140 631,-1176"/>
<text text-anchor="middle" x="604" y="-1155.1" font-family="Courier,monospace" font-size="11.00">Dir</text>
</g>
<!-- \\PLib\\Dir&#45;&gt;\\PLib\\IO -->
<g id="edge16" class="edge"><title>\\PLib\\Dir&#45;&gt;\\PLib\\IO</title>
<path fill="none" stroke="black" d="M576.856,-1155.53C527.751,-1151.07 423.375,-1141.58 359.79,-1135.8"/>
<polygon fill="none" stroke="black" points="359.842,-1132.29 349.566,-1134.87 359.208,-1139.26 359.842,-1132.29"/>
</g>
<!-- \\PLib\\StreamReader -->
<g id="node27" class="node"><title>\\PLib\\StreamReader</title>
<polygon fill="none" stroke="black" points="653,-798 555,-798 555,-762 653,-762 653,-798"/>
<text text-anchor="middle" x="604" y="-777.1" font-family="Courier,monospace" font-size="11.00">StreamReader</text>
</g>
<!-- \\PLib\\IStream -->
<g id="node46" class="node"><title>\\PLib\\IStream</title>
<polygon fill="none" stroke="black" points="339,-771 275,-771 275,-735 339,-735 339,-771"/>
<text text-anchor="middle" x="307" y="-750.1" font-family="Courier,monospace" font-size="11.00">IStream</text>
</g>
<!-- \\PLib\\StreamReader&#45;&gt;\\PLib\\IStream -->
<g id="edge18" class="edge"><title>\\PLib\\StreamReader&#45;&gt;\\PLib\\IStream</title>
<path fill="none" stroke="black" stroke-dasharray="1,5" d="M554.956,-775.541C497.532,-770.321 403.386,-761.762 349.124,-756.829"/>
<polygon fill="none" stroke="black" points="349.426,-753.343 339.15,-755.923 348.792,-760.314 349.426,-753.343"/>
</g>
<!-- \\PLib\\Stdin -->
<g id="node28" class="node"><title>\\PLib\\Stdin</title>
<polygon fill="none" stroke="black" points="631,-1014 577,-1014 577,-978 631,-978 631,-1014"/>
<text text-anchor="middle" x="604" y="-993.1" font-family="Courier,monospace" font-size="11.00">Stdin</text>
</g>
<!-- \\PLib\\Options -->
<g id="node29" class="node"><title>\\PLib\\Options</title>
<polygon fill="none" stroke="black" points="636,-960 572,-960 572,-924 636,-924 636,-960"/>
<text text-anchor="middle" x="604" y="-939.1" font-family="Courier,monospace" font-size="11.00">Options</text>
</g>
<!-- \\PLib\\Argument -->
<g id="node30" class="node"><title>\\PLib\\Argument</title>
<polygon fill="none" stroke="black" points="639,-906 569,-906 569,-870 639,-870 639,-906"/>
<text text-anchor="middle" x="604" y="-885.1" font-family="Courier,monospace" font-size="11.00">Argument</text>
</g>
<!-- \\PLib\\Option -->
<g id="node31" class="node"><title>\\PLib\\Option</title>
<polygon fill="none" stroke="black" points="632,-852 576,-852 576,-816 632,-816 632,-852"/>
<text text-anchor="middle" x="604" y="-831.1" font-family="Courier,monospace" font-size="11.00">Option</text>
</g>
<!-- \\PLib\\OptionsException -->
<g id="node32" class="node"><title>\\PLib\\OptionsException</title>
<polygon fill="none" stroke="black" points="666,-312 542,-312 542,-276 666,-276 666,-312"/>
<text text-anchor="middle" x="604" y="-291.1" font-family="Courier,monospace" font-size="11.00">OptionsException</text>
</g>
<!-- \\PLib\\OptionsException&#45;&gt;\\Exception -->
<g id="edge20" class="edge"><title>\\PLib\\OptionsException&#45;&gt;\\Exception</title>
<path fill="none" stroke="black" d="M541.297,-286.249C527.843,-282.214 514.525,-276.135 504,-267 442.65,-213.753 494.687,-150.666 432,-99 417.046,-86.6748 397.757,-79.6155 378.829,-75.6641"/>
<polygon fill="none" stroke="black" points="379.454,-72.2204 368.988,-73.8696 378.198,-79.1069 379.454,-72.2204"/>
</g>
<!-- \\PLib\\Image -->
<g id="node33" class="node"><title>\\PLib\\Image</title>
<polygon fill="none" stroke="black" points="334,-1068 280,-1068 280,-1032 334,-1032 334,-1068"/>
<text text-anchor="middle" x="307" y="-1047.1" font-family="Courier,monospace" font-size="11.00">Image</text>
</g>
<!-- \\PLib\\Graphics -->
<g id="node35" class="node"><title>\\PLib\\Graphics</title>
<polygon fill="none" stroke="black" points="109,-1068 25,-1068 25,-1032 109,-1032 109,-1068"/>
<text text-anchor="start" x="33" y="-1055.43" font-family="Courier,monospace" font-size="11.00">«abstract»</text>
<text text-anchor="start" x="39.5" y="-1042.23" font-family="Courier,monospace" font-size="11.00">Graphics</text>
</g>
<!-- \\PLib\\Image&#45;&gt;\\PLib\\Graphics -->
<g id="edge22" class="edge"><title>\\PLib\\Image&#45;&gt;\\PLib\\Graphics</title>
<path fill="none" stroke="black" d="M279.935,-1050C241.252,-1050 169.368,-1050 119.901,-1050"/>
<polygon fill="none" stroke="black" points="119.706,-1046.5 109.706,-1050 119.706,-1053.5 119.706,-1046.5"/>
</g>
<!-- \\PLib\\StringImage -->
<g id="node34" class="node"><title>\\PLib\\StringImage</title>
<polygon fill="none" stroke="black" points="649,-1068 559,-1068 559,-1032 649,-1032 649,-1068"/>
<text text-anchor="middle" x="604" y="-1047.1" font-family="Courier,monospace" font-size="11.00">StringImage</text>
</g>
<!-- \\PLib\\StringImage&#45;&gt;\\PLib\\Image -->
<g id="edge24" class="edge"><title>\\PLib\\StringImage&#45;&gt;\\PLib\\Image</title>
<path fill="none" stroke="black" d="M558.245,-1050C499.514,-1050 398.729,-1050 344.37,-1050"/>
<polygon fill="none" stroke="black" points="344.143,-1046.5 334.143,-1050 344.143,-1053.5 344.143,-1046.5"/>
</g>
<!-- \\PLib\\GraphicsException -->
<g id="node36" class="node"><title>\\PLib\\GraphicsException</title>
<polygon fill="none" stroke="black" points="669,-690 539,-690 539,-654 669,-654 669,-690"/>
<text text-anchor="middle" x="604" y="-669.1" font-family="Courier,monospace" font-size="11.00">GraphicsException</text>
</g>
<!-- \\PLib\\GraphicsException&#45;&gt;\\Exception -->
<g id="edge30" class="edge"><title>\\PLib\\GraphicsException&#45;&gt;\\Exception</title>
<path fill="none" stroke="black" d="M538.301,-665.895C525.309,-661.754 512.943,-655.215 504,-645 342.77,-460.837 597.871,-278.994 432,-99 418.357,-84.1952 398.695,-76.4909 378.991,-72.7145"/>
<polygon fill="none" stroke="black" points="379.456,-69.2445 369.028,-71.1214 378.35,-76.1566 379.456,-69.2445"/>
</g>
<!-- \\PLib\\Version -->
<g id="node37" class="node"><title>\\PLib\\Version</title>
<polygon fill="none" stroke="black" points="636,-636 572,-636 572,-600 636,-600 636,-636"/>
<text text-anchor="middle" x="604" y="-615.1" font-family="Courier,monospace" font-size="11.00">Version</text>
</g>
<!-- \\PLib\\Date -->
<g id="node38" class="node"><title>\\PLib\\Date</title>
<polygon fill="none" stroke="black" points="631,-582 577,-582 577,-546 631,-546 631,-582"/>
<text text-anchor="middle" x="604" y="-561.1" font-family="Courier,monospace" font-size="11.00">Date</text>
</g>
<!-- \\PLib\\Object -->
<g id="node39" class="node"><title>\\PLib\\Object</title>
<polygon fill="none" stroke="black" points="632,-528 576,-528 576,-492 632,-492 632,-528"/>
<text text-anchor="middle" x="604" y="-507.1" font-family="Courier,monospace" font-size="11.00">Object</text>
</g>
<!-- \\PLib\\String -->
<g id="node40" class="node"><title>\\PLib\\String</title>
<polygon fill="none" stroke="black" points="632,-474 576,-474 576,-438 632,-438 632,-474"/>
<text text-anchor="middle" x="604" y="-453.1" font-family="Courier,monospace" font-size="11.00">String</text>
</g>
<!-- \\PLib\\StringReader -->
<g id="node41" class="node"><title>\\PLib\\StringReader</title>
<polygon fill="none" stroke="black" points="653,-744 555,-744 555,-708 653,-708 653,-744"/>
<text text-anchor="middle" x="604" y="-723.1" font-family="Courier,monospace" font-size="11.00">StringReader</text>
</g>
<!-- \\PLib\\StringReader&#45;&gt;\\PLib\\IStream -->
<g id="edge36" class="edge"><title>\\PLib\\StringReader&#45;&gt;\\PLib\\IStream</title>
<path fill="none" stroke="black" stroke-dasharray="1,5" d="M554.956,-730.459C497.532,-735.679 403.386,-744.238 349.124,-749.171"/>
<polygon fill="none" stroke="black" points="348.792,-745.686 339.15,-750.077 349.426,-752.657 348.792,-745.686"/>
</g>
<!-- \\PLib\\Iterator -->
<g id="node42" class="node"><title>\\PLib\\Iterator</title>
<polygon fill="none" stroke="black" points="646,-366 562,-366 562,-330 646,-330 646,-366"/>
<text text-anchor="start" x="570" y="-353.433" font-family="Courier,monospace" font-size="11.00">«abstract»</text>
<text text-anchor="start" x="576.5" y="-340.233" font-family="Courier,monospace" font-size="11.00">Iterator</text>
</g>
<!-- \\PLib\\IteratorOutOfRangeException -->
<g id="node43" class="node"><title>\\PLib\\IteratorOutOfRangeException</title>
<polygon fill="none" stroke="black" points="703,-420 505,-420 505,-384 703,-384 703,-420"/>
<text text-anchor="middle" x="604" y="-399.1" font-family="Courier,monospace" font-size="11.00">IteratorOutOfRangeException</text>
</g>
<!-- \\PLib\\IteratorOutOfRangeException&#45;&gt;\\Exception -->
<g id="edge38" class="edge"><title>\\PLib\\IteratorOutOfRangeException&#45;&gt;\\Exception</title>
<path fill="none" stroke="black" d="M514.857,-383.819C510.947,-381.244 507.292,-378.32 504,-375 414.742,-284.977 523.524,-186.719 432,-99 417.805,-85.3947 398.471,-77.9715 379.253,-74.0813"/>
<polygon fill="none" stroke="black" points="379.691,-70.6052 369.242,-72.355 378.502,-77.5034 379.691,-70.6052"/>
</g>
<!-- \\PLib\\Cache -->
<g id="node44" class="node"><title>\\PLib\\Cache</title>
<polygon fill="none" stroke="black" points="631,-258 577,-258 577,-222 631,-222 631,-258"/>
<text text-anchor="middle" x="604" y="-237.1" font-family="Courier,monospace" font-size="11.00">Cache</text>
</g>
<!-- \\PLib\\CacheResult -->
<g id="node45" class="node"><title>\\PLib\\CacheResult</title>
<polygon fill="none" stroke="black" points="649,-204 559,-204 559,-168 649,-168 649,-204"/>
<text text-anchor="middle" x="604" y="-183.1" font-family="Courier,monospace" font-size="11.00">CacheResult</text>
</g>
</g>
</svg>
