<?xml version="1.0" encoding="UTF-8" standalone="no"?>
<!DOCTYPE svg PUBLIC "-//W3C//DTD SVG 1.1//EN"
 "http://www.w3.org/Graphics/SVG/1.1/DTD/svg11.dtd">
<!-- Generated by graphviz version 2.26.3 (20100126.1600)
 -->
<!-- Title: G Pages: 1 -->
<svg width="610pt" height="2014pt"
 viewBox="0.00 0.00 610.00 2014.00" xmlns="http://www.w3.org/2000/svg" xmlns:xlink="http://www.w3.org/1999/xlink">
<g id="graph1" class="graph" transform="scale(1 1) rotate(0) translate(4 2010)">
<title>G</title>
<polygon fill="white" stroke="white" points="-4,5 -4,-2010 607,-2010 607,5 -4,5"/>
<g id="graph2" class="cluster"><title>cluster_Global</title>
<polyline fill="none" stroke="gray" points="20,-44 582,-44 "/>
<path fill="none" stroke="gray" d="M582,-44C588,-44 594,-50 594,-56"/>
<polyline fill="none" stroke="gray" points="594,-56 594,-1986 "/>
<path fill="none" stroke="gray" d="M594,-1986C594,-1992 588,-1998 582,-1998"/>
<polyline fill="none" stroke="gray" points="582,-1998 20,-1998 "/>
<path fill="none" stroke="gray" d="M20,-1998C14,-1998 8,-1992 8,-1986"/>
<polyline fill="none" stroke="gray" points="8,-1986 8,-56 "/>
<path fill="none" stroke="gray" d="M8,-56C8,-50 14,-44 20,-44"/>
<text text-anchor="middle" x="301" y="-1984.1" font-family="Times Roman,serif" font-size="11.00" fill="gray">\</text>
</g>
<g id="graph3" class="cluster"><title>cluster_\PLib</title>
<polyline fill="none" stroke="gray" points="28,-52 574,-52 "/>
<path fill="none" stroke="gray" d="M574,-52C580,-52 586,-58 586,-64"/>
<polyline fill="none" stroke="gray" points="586,-64 586,-1956 "/>
<path fill="none" stroke="gray" d="M586,-1956C586,-1962 580,-1968 574,-1968"/>
<polyline fill="none" stroke="gray" points="574,-1968 28,-1968 "/>
<path fill="none" stroke="gray" d="M28,-1968C22,-1968 16,-1962 16,-1956"/>
<polyline fill="none" stroke="gray" points="16,-1956 16,-64 "/>
<path fill="none" stroke="gray" d="M16,-64C16,-58 22,-52 28,-52"/>
<text text-anchor="middle" x="301" y="-1954.1" font-family="Times Roman,serif" font-size="11.00" fill="gray">PLib</text>
</g>
<g id="graph4" class="cluster"><title>cluster_\PLib\Net</title>
<polyline fill="none" stroke="gray" points="392,-1160 564,-1160 "/>
<path fill="none" stroke="gray" d="M564,-1160C570,-1160 576,-1166 576,-1172"/>
<polyline fill="none" stroke="gray" points="576,-1172 576,-1546 "/>
<path fill="none" stroke="gray" d="M576,-1546C576,-1552 570,-1558 564,-1558"/>
<polyline fill="none" stroke="gray" points="564,-1558 392,-1558 "/>
<path fill="none" stroke="gray" d="M392,-1558C386,-1558 380,-1552 380,-1546"/>
<polyline fill="none" stroke="gray" points="380,-1546 380,-1172 "/>
<path fill="none" stroke="gray" d="M380,-1172C380,-1166 386,-1160 392,-1160"/>
<text text-anchor="middle" x="478" y="-1544.1" font-family="Times Roman,serif" font-size="11.00" fill="gray">Net</text>
</g>
<g id="graph5" class="cluster"><title>cluster_\PLib\XML</title>
<polyline fill="none" stroke="gray" points="39,-1756 523,-1756 "/>
<path fill="none" stroke="gray" d="M523,-1756C529,-1756 535,-1762 535,-1768"/>
<polyline fill="none" stroke="gray" points="535,-1768 535,-1926 "/>
<path fill="none" stroke="gray" d="M535,-1926C535,-1932 529,-1938 523,-1938"/>
<polyline fill="none" stroke="gray" points="523,-1938 39,-1938 "/>
<path fill="none" stroke="gray" d="M39,-1938C33,-1938 27,-1932 27,-1926"/>
<polyline fill="none" stroke="gray" points="27,-1926 27,-1768 "/>
<path fill="none" stroke="gray" d="M27,-1768C27,-1762 33,-1756 39,-1756"/>
<text text-anchor="middle" x="281" y="-1924.1" font-family="Times Roman,serif" font-size="11.00" fill="gray">XML</text>
</g>
<g id="graph6" class="cluster"><title>cluster_\PLib\Web</title>
<polyline fill="none" stroke="gray" points="423,-1566 533,-1566 "/>
<path fill="none" stroke="gray" d="M533,-1566C539,-1566 545,-1572 545,-1578"/>
<polyline fill="none" stroke="gray" points="545,-1578 545,-1736 "/>
<path fill="none" stroke="gray" d="M545,-1736C545,-1742 539,-1748 533,-1748"/>
<polyline fill="none" stroke="gray" points="533,-1748 423,-1748 "/>
<path fill="none" stroke="gray" d="M423,-1748C417,-1748 411,-1742 411,-1736"/>
<polyline fill="none" stroke="gray" points="411,-1736 411,-1578 "/>
<path fill="none" stroke="gray" d="M411,-1578C411,-1572 417,-1566 423,-1566"/>
<text text-anchor="middle" x="478" y="-1734.1" font-family="Times Roman,serif" font-size="11.00" fill="gray">Web</text>
</g>
<g id="graph7" class="cluster"><title>cluster_\PLib\HTML</title>
<polyline fill="none" stroke="gray" points="453,-1024 503,-1024 "/>
<path fill="none" stroke="gray" d="M503,-1024C509,-1024 515,-1030 515,-1036"/>
<polyline fill="none" stroke="gray" points="515,-1036 515,-1140 "/>
<path fill="none" stroke="gray" d="M515,-1140C515,-1146 509,-1152 503,-1152"/>
<polyline fill="none" stroke="gray" points="503,-1152 453,-1152 "/>
<path fill="none" stroke="gray" d="M453,-1152C447,-1152 441,-1146 441,-1140"/>
<polyline fill="none" stroke="gray" points="441,-1140 441,-1036 "/>
<path fill="none" stroke="gray" d="M441,-1036C441,-1030 447,-1024 453,-1024"/>
<text text-anchor="middle" x="478" y="-1138.1" font-family="Times Roman,serif" font-size="11.00" fill="gray">HTML</text>
</g>
<!-- \\PLib\\Net\\HTTPRequest -->
<g id="node4" class="node"><title>\\PLib\\Net\\HTTPRequest</title>
<polygon fill="none" stroke="black" points="523,-1528 433,-1528 433,-1492 523,-1492 523,-1528"/>
<text text-anchor="middle" x="478" y="-1507.1" font-family="Courier,monospace" font-size="11.00">HTTPRequest</text>
</g>
<!-- \\PLib\\Net\\HTTPResponse -->
<g id="node5" class="node"><title>\\PLib\\Net\\HTTPResponse</title>
<polygon fill="none" stroke="black" points="527,-1474 429,-1474 429,-1438 527,-1438 527,-1474"/>
<text text-anchor="middle" x="478" y="-1453.1" font-family="Courier,monospace" font-size="11.00">HTTPResponse</text>
</g>
<!-- \\PLib\\Net\\HTTPCookie -->
<g id="node6" class="node"><title>\\PLib\\Net\\HTTPCookie</title>
<polygon fill="none" stroke="black" points="520,-1420 436,-1420 436,-1384 520,-1384 520,-1420"/>
<text text-anchor="middle" x="478" y="-1399.1" font-family="Courier,monospace" font-size="11.00">HTTPCookie</text>
</g>
<!-- \\PLib\\Net\\Net -->
<g id="node7" class="node"><title>\\PLib\\Net\\Net</title>
<polygon fill="none" stroke="black" points="505,-1366 451,-1366 451,-1330 505,-1330 505,-1366"/>
<text text-anchor="middle" x="478" y="-1345.1" font-family="Courier,monospace" font-size="11.00">Net</text>
</g>
<!-- \\PLib\\Net\\HTTPMaxRedirectException -->
<g id="node8" class="node"><title>\\PLib\\Net\\HTTPMaxRedirectException</title>
<polygon fill="none" stroke="black" points="567,-1204 389,-1204 389,-1168 567,-1168 567,-1204"/>
<text text-anchor="middle" x="478" y="-1183.1" font-family="Courier,monospace" font-size="11.00">HTTPMaxRedirectException</text>
</g>
<!-- \\Exception -->
<g id="node48" class="node"><title>\\Exception</title>
<ellipse fill="none" stroke="black" cx="244" cy="-18" rx="62.2254" ry="18.3848"/>
<text text-anchor="middle" x="244" y="-14.4" font-family="Times Roman,serif" font-size="14.00" fill="gray">\Exception</text>
</g>
<!-- \\PLib\\Net\\HTTPMaxRedirectException&#45;&gt;\\Exception -->
<g id="edge8" class="edge"><title>\\PLib\\Net\\HTTPMaxRedirectException&#45;&gt;\\Exception</title>
<path fill="none" stroke="black" d="M390.592,-1167.71C385.883,-1164.41 381.611,-1160.54 378,-1156 224.368,-962.923 443.792,-252.682 306,-48 303.07,-43.6478 299.323,-39.9063 295.126,-36.6939"/>
<polygon fill="none" stroke="black" points="296.886,-33.6636 286.594,-31.147 293.07,-39.5322 296.886,-33.6636"/>
</g>
<!-- \\PLib\\Net\\HTTPRequestException -->
<g id="node9" class="node"><title>\\PLib\\Net\\HTTPRequestException</title>
<polygon fill="none" stroke="black" points="554,-1312 402,-1312 402,-1276 554,-1276 554,-1312"/>
<text text-anchor="middle" x="478" y="-1291.1" font-family="Courier,monospace" font-size="11.00">HTTPRequestException</text>
</g>
<!-- \\PLib\\Net\\HTTPRequestException&#45;&gt;\\Exception -->
<g id="edge10" class="edge"><title>\\PLib\\Net\\HTTPRequestException&#45;&gt;\\Exception</title>
<path fill="none" stroke="black" d="M401.9,-1284.61C392.716,-1280.5 384.356,-1274.81 378,-1267 206.729,-1056.52 456.877,-273.55 306,-48 303.083,-43.6392 299.345,-39.892 295.152,-36.6761"/>
<polygon fill="none" stroke="black" points="296.917,-33.6486 286.627,-31.1251 293.097,-39.5147 296.917,-33.6486"/>
</g>
<!-- \\PLib\\Net\\HTTPResponseException -->
<g id="node10" class="node"><title>\\PLib\\Net\\HTTPResponseException</title>
<polygon fill="none" stroke="black" points="557,-1258 399,-1258 399,-1222 557,-1222 557,-1258"/>
<text text-anchor="middle" x="478" y="-1237.1" font-family="Courier,monospace" font-size="11.00">HTTPResponseException</text>
</g>
<!-- \\PLib\\Net\\HTTPResponseException&#45;&gt;\\Exception -->
<g id="edge12" class="edge"><title>\\PLib\\Net\\HTTPResponseException&#45;&gt;\\Exception</title>
<path fill="none" stroke="black" d="M398.996,-1229.22C390.963,-1225.24 383.684,-1219.97 378,-1213 214.015,-1012.03 450.511,-263.398 306,-48 303.077,-43.6432 299.335,-39.8986 295.14,-36.6843"/>
<polygon fill="none" stroke="black" points="296.903,-33.6555 286.612,-31.1352 293.085,-39.5228 296.903,-33.6555"/>
</g>
<!-- \\PLib\\XML\\Qname -->
<g id="node12" class="node"><title>\\PLib\\XML\\Qname</title>
<polygon fill="none" stroke="black" points="505,-1908 451,-1908 451,-1872 505,-1872 505,-1908"/>
<text text-anchor="middle" x="478" y="-1887.1" font-family="Courier,monospace" font-size="11.00">Qname</text>
</g>
<!-- \\PLib\\XML\\XMLNode -->
<g id="node13" class="node"><title>\\PLib\\XML\\XMLNode</title>
<polygon fill="none" stroke="black" points="99,-1854 35,-1854 35,-1818 99,-1818 99,-1854"/>
<text text-anchor="middle" x="67" y="-1833.1" font-family="Courier,monospace" font-size="11.00">XMLNode</text>
</g>
<!-- \\PLib\\XML\\XMLDocument -->
<g id="node14" class="node"><title>\\PLib\\XML\\XMLDocument</title>
<polygon fill="none" stroke="black" points="289,-1854 199,-1854 199,-1818 289,-1818 289,-1854"/>
<text text-anchor="middle" x="244" y="-1833.1" font-family="Courier,monospace" font-size="11.00">XMLDocument</text>
</g>
<!-- \\PLib\\XML\\XMLDocument&#45;&gt;\\PLib\\XML\\XMLNode -->
<g id="edge32" class="edge"><title>\\PLib\\XML\\XMLDocument&#45;&gt;\\PLib\\XML\\XMLNode</title>
<path fill="none" stroke="black" d="M198.418,-1836C170.929,-1836 136.15,-1836 109.276,-1836"/>
<polygon fill="none" stroke="black" points="109.028,-1832.5 99.0277,-1836 109.028,-1839.5 109.028,-1832.5"/>
</g>
<!-- \\PLib\\XML\\HTMLDocument -->
<g id="node15" class="node"><title>\\PLib\\XML\\HTMLDocument</title>
<polygon fill="none" stroke="black" points="527,-1854 429,-1854 429,-1818 527,-1818 527,-1854"/>
<text text-anchor="middle" x="478" y="-1833.1" font-family="Courier,monospace" font-size="11.00">HTMLDocument</text>
</g>
<!-- \\PLib\\XML\\HTMLDocument&#45;&gt;\\PLib\\XML\\XMLDocument -->
<g id="edge34" class="edge"><title>\\PLib\\XML\\HTMLDocument&#45;&gt;\\PLib\\XML\\XMLDocument</title>
<path fill="none" stroke="black" d="M428.946,-1836C391.301,-1836 339.295,-1836 300.016,-1836"/>
<polygon fill="none" stroke="black" points="299.81,-1832.5 289.81,-1836 299.81,-1839.5 299.81,-1832.5"/>
</g>
<!-- \\PLib\\XML\\Ent -->
<g id="node16" class="node"><title>\\PLib\\XML\\Ent</title>
<polygon fill="none" stroke="black" points="505,-1800 451,-1800 451,-1764 505,-1764 505,-1800"/>
<text text-anchor="middle" x="478" y="-1779.1" font-family="Courier,monospace" font-size="11.00">Ent</text>
</g>
<!-- \\PLib\\Web\\Cookie -->
<g id="node18" class="node"><title>\\PLib\\Web\\Cookie</title>
<polygon fill="none" stroke="black" points="506,-1718 450,-1718 450,-1682 506,-1682 506,-1718"/>
<text text-anchor="middle" x="478" y="-1697.1" font-family="Courier,monospace" font-size="11.00">Cookie</text>
</g>
<!-- \\PLib\\Web\\Upload -->
<g id="node19" class="node"><title>\\PLib\\Web\\Upload</title>
<polygon fill="none" stroke="black" points="506,-1664 450,-1664 450,-1628 506,-1628 506,-1664"/>
<text text-anchor="middle" x="478" y="-1643.1" font-family="Courier,monospace" font-size="11.00">Upload</text>
</g>
<!-- \\PLib\\Iterator -->
<g id="node42" class="node"><title>\\PLib\\Iterator</title>
<polygon fill="none" stroke="black" points="286,-1664 202,-1664 202,-1628 286,-1628 286,-1664"/>
<text text-anchor="start" x="210" y="-1651.43" font-family="Courier,monospace" font-size="11.00">«abstract»</text>
<text text-anchor="start" x="216.5" y="-1638.23" font-family="Courier,monospace" font-size="11.00">Iterator</text>
</g>
<!-- \\PLib\\Web\\Upload&#45;&gt;\\PLib\\Iterator -->
<g id="edge26" class="edge"><title>\\PLib\\Web\\Upload&#45;&gt;\\PLib\\Iterator</title>
<path fill="none" stroke="black" d="M449.307,-1646C411.446,-1646 344.088,-1646 296.881,-1646"/>
<polygon fill="none" stroke="black" points="296.834,-1642.5 286.834,-1646 296.834,-1649.5 296.834,-1642.5"/>
</g>
<!-- \\PLib\\Web\\UploadException -->
<g id="node20" class="node"><title>\\PLib\\Web\\UploadException</title>
<polygon fill="none" stroke="black" points="537,-1610 419,-1610 419,-1574 537,-1574 537,-1610"/>
<text text-anchor="middle" x="478" y="-1589.1" font-family="Courier,monospace" font-size="11.00">UploadException</text>
</g>
<!-- \\PLib\\Web\\UploadException&#45;&gt;\\Exception -->
<g id="edge28" class="edge"><title>\\PLib\\Web\\UploadException&#45;&gt;\\Exception</title>
<path fill="none" stroke="black" d="M418.799,-1586.66C403.218,-1582.29 387.99,-1574.78 378,-1562 274.288,-1429.31 398.833,-188.516 306,-48 303.108,-43.6226 299.386,-39.8644 295.204,-36.6418"/>
<polygon fill="none" stroke="black" points="296.977,-33.6197 286.691,-31.0827 293.15,-39.4808 296.977,-33.6197"/>
</g>
<!-- \\PLib\\HTML\\Parser -->
<g id="node22" class="node"><title>\\PLib\\HTML\\Parser</title>
<polygon fill="none" stroke="black" points="506,-1122 450,-1122 450,-1086 506,-1086 506,-1122"/>
<text text-anchor="middle" x="478" y="-1101.1" font-family="Courier,monospace" font-size="11.00">Parser</text>
</g>
<!-- \\PLib\\HTML\\Object -->
<g id="node23" class="node"><title>\\PLib\\HTML\\Object</title>
<polygon fill="none" stroke="black" points="506,-1068 450,-1068 450,-1032 506,-1032 506,-1068"/>
<text text-anchor="middle" x="478" y="-1047.1" font-family="Courier,monospace" font-size="11.00">Object</text>
</g>
<!-- \\PLib\\File -->
<g id="node24" class="node"><title>\\PLib\\File</title>
<polygon fill="none" stroke="black" points="505,-1014 451,-1014 451,-978 505,-978 505,-1014"/>
<text text-anchor="middle" x="478" y="-993.1" font-family="Courier,monospace" font-size="11.00">File</text>
</g>
<!-- \\PLib\\IO -->
<g id="node26" class="node"><title>\\PLib\\IO</title>
<polygon fill="none" stroke="black" points="286,-987 202,-987 202,-951 286,-951 286,-987"/>
<text text-anchor="start" x="210" y="-974.433" font-family="Courier,monospace" font-size="11.00">«abstract»</text>
<text text-anchor="start" x="237" y="-961.233" font-family="Courier,monospace" font-size="11.00">IO</text>
</g>
<!-- \\PLib\\File&#45;&gt;\\PLib\\IO -->
<g id="edge14" class="edge"><title>\\PLib\\File&#45;&gt;\\PLib\\IO</title>
<path fill="none" stroke="black" d="M450.699,-992.85C413.073,-988.508 344.514,-980.598 296.715,-975.082"/>
<polygon fill="none" stroke="black" points="296.884,-971.579 286.548,-973.909 296.081,-978.533 296.884,-971.579"/>
</g>
<!-- \\PLib\\Dir -->
<g id="node25" class="node"><title>\\PLib\\Dir</title>
<polygon fill="none" stroke="black" points="505,-960 451,-960 451,-924 505,-924 505,-960"/>
<text text-anchor="middle" x="478" y="-939.1" font-family="Courier,monospace" font-size="11.00">Dir</text>
</g>
<!-- \\PLib\\Dir&#45;&gt;\\PLib\\IO -->
<g id="edge16" class="edge"><title>\\PLib\\Dir&#45;&gt;\\PLib\\IO</title>
<path fill="none" stroke="black" d="M450.699,-945.15C413.073,-949.492 344.514,-957.402 296.715,-962.918"/>
<polygon fill="none" stroke="black" points="296.081,-959.467 286.548,-964.091 296.884,-966.421 296.081,-959.467"/>
</g>
<!-- \\PLib\\StreamReader -->
<g id="node27" class="node"><title>\\PLib\\StreamReader</title>
<polygon fill="none" stroke="black" points="527,-906 429,-906 429,-870 527,-870 527,-906"/>
<text text-anchor="middle" x="478" y="-885.1" font-family="Courier,monospace" font-size="11.00">StreamReader</text>
</g>
<!-- \\PLib\\IStream -->
<g id="node46" class="node"><title>\\PLib\\IStream</title>
<polygon fill="none" stroke="black" points="276,-798 212,-798 212,-762 276,-762 276,-798"/>
<text text-anchor="middle" x="244" y="-777.1" font-family="Courier,monospace" font-size="11.00">IStream</text>
</g>
<!-- \\PLib\\StreamReader&#45;&gt;\\PLib\\IStream -->
<g id="edge18" class="edge"><title>\\PLib\\StreamReader&#45;&gt;\\PLib\\IStream</title>
<path fill="none" stroke="black" stroke-dasharray="1,5" d="M428.755,-877.622C412.283,-873.388 394.041,-867.852 378,-861 341.84,-845.553 303.762,-821.702 277.478,-803.876"/>
<polygon fill="none" stroke="black" points="279.262,-800.855 269.036,-798.082 275.301,-806.627 279.262,-800.855"/>
</g>
<!-- \\PLib\\Stdin -->
<g id="node28" class="node"><title>\\PLib\\Stdin</title>
<polygon fill="none" stroke="black" points="505,-852 451,-852 451,-816 505,-816 505,-852"/>
<text text-anchor="middle" x="478" y="-831.1" font-family="Courier,monospace" font-size="11.00">Stdin</text>
</g>
<!-- \\PLib\\Options -->
<g id="node29" class="node"><title>\\PLib\\Options</title>
<polygon fill="none" stroke="black" points="510,-798 446,-798 446,-762 510,-762 510,-798"/>
<text text-anchor="middle" x="478" y="-777.1" font-family="Courier,monospace" font-size="11.00">Options</text>
</g>
<!-- \\PLib\\Argument -->
<g id="node30" class="node"><title>\\PLib\\Argument</title>
<polygon fill="none" stroke="black" points="513,-744 443,-744 443,-708 513,-708 513,-744"/>
<text text-anchor="middle" x="478" y="-723.1" font-family="Courier,monospace" font-size="11.00">Argument</text>
</g>
<!-- \\PLib\\Option -->
<g id="node31" class="node"><title>\\PLib\\Option</title>
<polygon fill="none" stroke="black" points="506,-690 450,-690 450,-654 506,-654 506,-690"/>
<text text-anchor="middle" x="478" y="-669.1" font-family="Courier,monospace" font-size="11.00">Option</text>
</g>
<!-- \\PLib\\OptionsException -->
<g id="node32" class="node"><title>\\PLib\\OptionsException</title>
<polygon fill="none" stroke="black" points="540,-204 416,-204 416,-168 540,-168 540,-204"/>
<text text-anchor="middle" x="478" y="-183.1" font-family="Courier,monospace" font-size="11.00">OptionsException</text>
</g>
<!-- \\PLib\\OptionsException&#45;&gt;\\Exception -->
<g id="edge20" class="edge"><title>\\PLib\\OptionsException&#45;&gt;\\Exception</title>
<path fill="none" stroke="black" d="M415.33,-176.582C402.173,-172.621 388.974,-166.994 378,-159 330.47,-124.378 350.091,-86.9069 306,-48 301.52,-44.0465 296.426,-40.4935 291.13,-37.3351"/>
<polygon fill="none" stroke="black" points="292.549,-34.1221 282.097,-32.3914 289.189,-40.2627 292.549,-34.1221"/>
</g>
<!-- \\PLib\\Image -->
<g id="node33" class="node"><title>\\PLib\\Image</title>
<polygon fill="none" stroke="black" points="271,-582 217,-582 217,-546 271,-546 271,-582"/>
<text text-anchor="middle" x="244" y="-561.1" font-family="Courier,monospace" font-size="11.00">Image</text>
</g>
<!-- \\PLib\\Graphics -->
<g id="node35" class="node"><title>\\PLib\\Graphics</title>
<polygon fill="none" stroke="black" points="109,-582 25,-582 25,-546 109,-546 109,-582"/>
<text text-anchor="start" x="33" y="-569.433" font-family="Courier,monospace" font-size="11.00">«abstract»</text>
<text text-anchor="start" x="39.5" y="-556.233" font-family="Courier,monospace" font-size="11.00">Graphics</text>
</g>
<!-- \\PLib\\Image&#45;&gt;\\PLib\\Graphics -->
<g id="edge22" class="edge"><title>\\PLib\\Image&#45;&gt;\\PLib\\Graphics</title>
<path fill="none" stroke="black" d="M216.732,-564C191.006,-564 151.741,-564 119.873,-564"/>
<polygon fill="none" stroke="black" points="119.813,-560.5 109.813,-564 119.813,-567.5 119.813,-560.5"/>
</g>
<!-- \\PLib\\StringImage -->
<g id="node34" class="node"><title>\\PLib\\StringImage</title>
<polygon fill="none" stroke="black" points="523,-582 433,-582 433,-546 523,-546 523,-582"/>
<text text-anchor="middle" x="478" y="-561.1" font-family="Courier,monospace" font-size="11.00">StringImage</text>
</g>
<!-- \\PLib\\StringImage&#45;&gt;\\PLib\\Image -->
<g id="edge24" class="edge"><title>\\PLib\\StringImage&#45;&gt;\\PLib\\Image</title>
<path fill="none" stroke="black" d="M432.327,-564C388.28,-564 322.422,-564 281.397,-564"/>
<polygon fill="none" stroke="black" points="281.279,-560.5 271.279,-564 281.279,-567.5 281.279,-560.5"/>
</g>
<!-- \\PLib\\GraphicsException -->
<g id="node36" class="node"><title>\\PLib\\GraphicsException</title>
<polygon fill="none" stroke="black" points="543,-528 413,-528 413,-492 543,-492 543,-528"/>
<text text-anchor="middle" x="478" y="-507.1" font-family="Courier,monospace" font-size="11.00">GraphicsException</text>
</g>
<!-- \\PLib\\GraphicsException&#45;&gt;\\Exception -->
<g id="edge30" class="edge"><title>\\PLib\\GraphicsException&#45;&gt;\\Exception</title>
<path fill="none" stroke="black" d="M412.292,-503.591C399.38,-499.458 387.05,-493 378,-483 246.508,-337.701 423.356,-204.938 306,-48 302.814,-43.74 298.864,-40.0547 294.51,-36.8729"/>
<polygon fill="none" stroke="black" points="296.065,-33.7163 285.737,-31.3561 292.339,-39.6422 296.065,-33.7163"/>
</g>
<!-- \\PLib\\Version -->
<g id="node37" class="node"><title>\\PLib\\Version</title>
<polygon fill="none" stroke="black" points="510,-474 446,-474 446,-438 510,-438 510,-474"/>
<text text-anchor="middle" x="478" y="-453.1" font-family="Courier,monospace" font-size="11.00">Version</text>
</g>
<!-- \\PLib\\Date -->
<g id="node38" class="node"><title>\\PLib\\Date</title>
<polygon fill="none" stroke="black" points="505,-420 451,-420 451,-384 505,-384 505,-420"/>
<text text-anchor="middle" x="478" y="-399.1" font-family="Courier,monospace" font-size="11.00">Date</text>
</g>
<!-- \\PLib\\Object -->
<g id="node39" class="node"><title>\\PLib\\Object</title>
<polygon fill="none" stroke="black" points="506,-366 450,-366 450,-330 506,-330 506,-366"/>
<text text-anchor="middle" x="478" y="-345.1" font-family="Courier,monospace" font-size="11.00">Object</text>
</g>
<!-- \\PLib\\String -->
<g id="node40" class="node"><title>\\PLib\\String</title>
<polygon fill="none" stroke="black" points="506,-312 450,-312 450,-276 506,-276 506,-312"/>
<text text-anchor="middle" x="478" y="-291.1" font-family="Courier,monospace" font-size="11.00">String</text>
</g>
<!-- \\PLib\\StringReader -->
<g id="node41" class="node"><title>\\PLib\\StringReader</title>
<polygon fill="none" stroke="black" points="527,-636 429,-636 429,-600 527,-600 527,-636"/>
<text text-anchor="middle" x="478" y="-615.1" font-family="Courier,monospace" font-size="11.00">StringReader</text>
</g>
<!-- \\PLib\\StringReader&#45;&gt;\\PLib\\IStream -->
<g id="edge36" class="edge"><title>\\PLib\\StringReader&#45;&gt;\\PLib\\IStream</title>
<path fill="none" stroke="black" stroke-dasharray="1,5" d="M428.922,-625.855C412.022,-629.93 393.47,-636.01 378,-645 329.718,-673.057 286.753,-722.953 263.148,-753.593"/>
<polygon fill="none" stroke="black" points="260.263,-751.606 257.015,-761.691 265.843,-755.832 260.263,-751.606"/>
</g>
<!-- \\PLib\\IteratorOutOfRangeException -->
<g id="node43" class="node"><title>\\PLib\\IteratorOutOfRangeException</title>
<polygon fill="none" stroke="black" points="577,-258 379,-258 379,-222 577,-222 577,-258"/>
<text text-anchor="middle" x="478" y="-237.1" font-family="Courier,monospace" font-size="11.00">IteratorOutOfRangeException</text>
</g>
<!-- \\PLib\\IteratorOutOfRangeException&#45;&gt;\\Exception -->
<g id="edge38" class="edge"><title>\\PLib\\IteratorOutOfRangeException&#45;&gt;\\Exception</title>
<path fill="none" stroke="black" d="M390.876,-221.994C386.288,-219.386 381.95,-216.405 378,-213 317.402,-160.754 361.457,-105.674 306,-48 301.965,-43.8034 297.222,-40.1179 292.186,-36.901"/>
<polygon fill="none" stroke="black" points="293.925,-33.8631 283.509,-31.9219 290.441,-39.9346 293.925,-33.8631"/>
</g>
<!-- \\PLib\\Cache -->
<g id="node44" class="node"><title>\\PLib\\Cache</title>
<polygon fill="none" stroke="black" points="505,-150 451,-150 451,-114 505,-114 505,-150"/>
<text text-anchor="middle" x="478" y="-129.1" font-family="Courier,monospace" font-size="11.00">Cache</text>
</g>
<!-- \\PLib\\CacheResult -->
<g id="node45" class="node"><title>\\PLib\\CacheResult</title>
<polygon fill="none" stroke="black" points="523,-96 433,-96 433,-60 523,-60 523,-96"/>
<text text-anchor="middle" x="478" y="-75.1" font-family="Courier,monospace" font-size="11.00">CacheResult</text>
</g>
</g>
</svg>
